<?xml version="1.0" standalone="no"?>
<svg xmlns="http://www.w3.org/2000/svg" viewBox="0 0 270.768 36" width="270.768" height="36"><g fill="#ffffff" color="#ffffff" transform="translate(0 8.407407407407408) scale(0.5185186)"><svg width="54.0" height="37.0" x="0.0" y="0.0" viewBox="0 0 54 37"><path fill="currentColor" fill-rule="evenodd" d="M53.252 22.142C51.05 9.572 40.038 0 26.862 0 12.067 0 0 12.067 0 26.86c0 3.237.578 6.343 1.73 9.044 14.863-10.423 31.836-15.314 51.522-13.763m.127 1.503c.276 1.007.344 2.104.344 3.216 0 3.469-.663 6.786-1.898 9.78-9.752.631-11.423-13.057 1.554-12.996"></path></svg></g><path fill="#ffffff" fill-rule="nonzero" d="M8.57 18.38L5.69 18.38L2.04 4.20Q1.87 3.55 1.68 3.32Q1.49 3.10 0.96 3L0.96 3L0 2.81L0 1.58L6.34 1.58L6.34 2.74L5.11 2.90Q4.63 2.98 4.52 3.22Q4.42 3.46 4.56 4.10L4.56 4.10L7.37 16.32L7.49 16.32L11.35 1.58L13.97 1.58L18.26 16.20L18.38 16.20L21.22 4.25Q21.36 3.60 21.24 3.34Q21.12 3.07 20.64 2.98L20.64 2.98L19.46 2.71L19.46 1.58L25.15 1.58L25.15 2.74L24.02 2.93Q23.54 3 23.30 3.28Q23.06 3.55 22.90 4.22L22.90 4.22L19.27 18.38L16.56 18.38L12.38 3.96L12.31 3.96L8.57 18.38ZM32.52 18.72L32.52 18.72Q30.77 18.72 29.48 17.95Q28.20 17.18 27.49 15.77Q26.78 14.35 26.78 12.46L26.78 12.46Q26.78 10.46 27.52 8.99Q28.25 7.51 29.57 6.70Q30.89 5.88 32.64 5.88L32.64 5.88Q34.63 5.88 35.84 7.04Q37.06 8.21 37.06 10.13L37.06 10.13Q37.06 10.63 36.97 11.23Q36.89 11.83 36.72 12.48L36.72 12.48L29.21 12.48Q29.28 14.59 30.30 15.77Q31.32 16.94 33.07 16.94L33.07 16.94Q33.98 16.94 34.85 16.56Q35.71 16.18 36.38 15.50L36.38 15.50L37.22 16.34Q36.70 17.06 35.94 17.60Q35.18 18.14 34.31 18.43Q33.43 18.72 32.52 18.72ZM29.21 11.14L29.21 11.14L34.73 11.14Q34.78 10.90 34.79 10.62Q34.80 10.34 34.80 10.03L34.80 10.03Q34.80 8.62 34.19 7.88Q33.58 7.15 32.38 7.15L32.38 7.15Q31.01 7.15 30.20 8.17Q29.40 9.19 29.21 11.14ZM40.70 18.72L39.70 18.72L39.31 14.59L40.66 14.50Q40.99 15.41 41.47 16.03Q41.95 16.66 42.60 16.97Q43.25 17.28 44.02 17.28L44.02 17.28Q45.07 17.28 45.67 16.74Q46.27 16.20 46.27 15.26L46.27 15.26Q46.27 14.50 45.68 14.04Q45.10 13.58 43.46 13.13L43.46 13.13Q42.41 12.84 41.66 12.49Q40.92 12.14 40.46 11.71Q40.01 11.28 39.80 10.74Q39.60 10.20 39.60 9.48L39.60 9.48Q39.60 8.38 40.10 7.57Q40.61 6.77 41.54 6.32Q42.48 5.88 43.73 5.88L43.73 5.88Q44.47 5.88 45.20 6.11Q45.94 6.34 46.37 6.70L46.37 6.70L46.56 5.88L47.62 5.88L47.93 9.79L46.56 9.67Q46.32 8.54 45.55 7.86Q44.78 7.18 43.78 7.18L43.78 7.18Q42.74 7.18 42.18 7.63Q41.62 8.09 41.62 8.93L41.62 8.93Q41.62 9.67 42.19 10.12Q42.77 10.56 44.38 11.04L44.38 11.04Q45.46 11.35 46.20 11.70Q46.94 12.05 47.40 12.48Q47.86 12.91 48.06 13.46Q48.26 14.02 48.26 14.74L48.26 14.74Q48.26 15.91 47.71 16.81Q47.16 17.71 46.20 18.22Q45.24 18.72 43.97 18.72L43.97 18.72Q43.03 18.72 42.25 18.50Q41.47 18.29 40.97 17.90L40.97 17.90L40.70 18.72ZM54.96 18.72L54.96 18.72Q53.33 18.72 52.55 17.84Q51.77 16.97 51.77 15.14L51.77 15.14L51.77 7.73L49.87 7.73L49.87 6.48Q50.71 6.41 51.26 5.96Q51.82 5.52 52.13 4.60Q52.44 3.67 52.54 2.21L52.54 2.21L53.69 2.06L54 2.21L54 6.22L57.74 6.22L57.74 7.73L54 7.73L54 14.98Q54 15.98 54.42 16.48Q54.84 16.97 55.70 16.97L55.70 16.97Q56.33 16.97 56.88 16.78Q57.43 16.58 58.01 16.20L58.01 16.20L58.56 17.06Q57.79 17.86 56.86 18.29Q55.92 18.72 54.96 18.72ZM66.34 18.38L63.70 18.38L60.74 8.81Q60.58 8.16 60.38 7.93Q60.19 7.70 59.69 7.58L59.69 7.58L58.85 7.39L59.09 6.22L64.73 6.22L64.73 7.32L63.58 7.49Q63.12 7.56 63.02 7.78Q62.93 7.99 63.10 8.69L63.10 8.69L65.21 16.39L65.33 16.39L68.11 6.22L70.68 6.22L73.37 16.34L73.49 16.34L75.58 8.86Q75.77 8.21 75.65 7.94Q75.53 7.68 75.02 7.56L75.02 7.56L73.99 7.32L74.21 6.22L79.15 6.22L79.15 7.34L78.26 7.54Q77.81 7.63 77.59 7.88Q77.38 8.14 77.16 8.83L77.16 8.83L74.26 18.38L71.74 18.38L69.12 8.50L69 8.50L66.34 18.38ZM86.26 18.72L86.26 18.72Q84.48 18.72 83.16 17.96Q81.84 17.21 81.13 15.83Q80.42 14.45 80.42 12.58L80.42 12.58Q80.42 10.51 81.17 9.01Q81.91 7.51 83.30 6.70Q84.70 5.88 86.59 5.88L86.59 5.88Q88.34 5.88 89.62 6.62Q90.89 7.37 91.58 8.74Q92.28 10.10 92.28 11.98L92.28 11.98Q92.28 14.02 91.54 15.54Q90.79 17.06 89.45 17.89Q88.10 18.72 86.26 18.72ZM86.59 17.23L86.59 17.23Q88.15 17.23 88.99 16.02Q89.83 14.81 89.83 12.55L89.83 12.55Q89.83 10.13 88.86 8.71Q87.89 7.30 86.21 7.30L86.21 7.30Q84.60 7.30 83.72 8.47Q82.85 9.65 82.85 11.86L82.85 11.86Q82.85 14.38 83.84 15.80Q84.84 17.23 86.59 17.23ZM100.32 18.72L100.32 18.72Q98.54 18.72 97.22 17.96Q95.90 17.21 95.20 15.83Q94.49 14.45 94.49 12.58L94.49 12.58Q94.49 10.51 95.23 9.01Q95.98 7.51 97.37 6.70Q98.76 5.88 100.66 5.88L100.66 5.88Q102.41 5.88 103.68 6.62Q104.95 7.37 105.65 8.74Q106.34 10.10 106.34 11.98L106.34 11.98Q106.34 14.02 105.60 15.54Q104.86 17.06 103.51 17.89Q102.17 18.72 100.32 18.72ZM100.66 17.23L100.66 17.23Q102.22 17.23 103.06 16.02Q103.90 14.81 103.90 12.55L103.90 12.55Q103.90 10.13 102.92 8.71Q101.95 7.30 100.27 7.30L100.27 7.30Q98.66 7.30 97.79 8.47Q96.91 9.65 96.91 11.86L96.91 11.86Q96.91 14.38 97.91 15.80Q98.90 17.23 100.66 17.23ZM113.47 18.72L113.47 18.72Q111.14 18.72 109.85 17.12Q108.55 15.53 108.55 12.67L108.55 12.67Q108.55 10.58 109.27 9.06Q109.99 7.54 111.30 6.71Q112.61 5.88 114.41 5.88L114.41 5.88Q115.20 5.88 116.00 6.10Q116.81 6.31 117.36 6.67L117.36 6.67L117.36 2.93Q117.36 2.09 117.18 1.84Q117.00 1.58 116.33 1.49L116.33 1.49L115.27 1.32L115.42 0.12L119.33 0L119.59 0.26L119.59 16.03Q119.59 16.61 119.75 16.81Q119.90 17.02 120.38 17.11L120.38 17.11L121.56 17.33L121.56 18.46L117.86 18.60L117.53 16.70L117.46 16.70Q116.66 17.71 115.67 18.22Q114.67 18.72 113.47 18.72ZM114.17 16.99L114.17 16.99Q115.13 16.99 115.84 16.52Q116.54 16.06 116.95 15.22Q117.36 14.38 117.36 13.30L117.36 13.30L117.36 8.47Q116.76 7.99 115.98 7.74Q115.20 7.49 114.36 7.49L114.36 7.49Q112.66 7.49 111.79 8.74Q110.93 9.98 110.93 12.43L110.93 12.43Q110.93 14.64 111.77 15.82Q112.61 16.99 114.17 16.99ZM135.50 18.38L128.42 18.38L128.42 17.23L129.82 17.02Q130.27 16.94 130.42 16.70Q130.56 16.46 130.56 15.79L130.56 15.79L130.56 4.08Q130.56 3.46 130.40 3.24Q130.25 3.02 129.77 2.95L129.77 2.95L128.42 2.74L128.42 1.58L139.80 1.58L140.66 5.88L139.42 6.31Q138.89 4.85 138.41 4.12Q137.93 3.38 137.26 3.13Q136.58 2.88 135.43 2.88L135.43 2.88L132.94 2.88L132.94 9.58L135.02 9.58Q135.91 9.58 136.32 9.48Q136.73 9.38 136.90 8.96Q137.06 8.54 137.26 7.61L137.26 7.61L138.36 7.46L138.36 13.39L137.26 13.58Q137.09 12.41 136.91 11.88Q136.73 11.35 136.31 11.21Q135.89 11.06 135.02 11.06L135.02 11.06L132.94 11.06L132.94 15.84Q132.94 16.49 133.12 16.74Q133.30 16.99 133.82 17.04L133.82 17.04L135.50 17.23L135.50 18.38ZM149.11 18.38L142.66 18.38L142.66 17.21L144.02 16.99Q144.50 16.92 144.64 16.68Q144.77 16.44 144.77 15.77L144.77 15.77L144.77 9.22Q144.77 8.33 144.61 8.05Q144.46 7.78 143.90 7.70L143.90 7.70L142.75 7.54L142.92 6.34L146.71 6.14L147.00 6.26L147.00 15.86Q147.00 16.46 147.16 16.69Q147.31 16.92 147.77 16.99L147.77 16.99L149.11 17.23L149.11 18.38ZM145.54 3.50L145.54 3.50Q144.84 3.50 144.38 3.06Q143.93 2.62 143.93 1.92L143.93 1.92Q143.93 1.22 144.38 0.77Q144.84 0.31 145.54 0.31L145.54 0.31Q146.26 0.31 146.71 0.76Q147.17 1.20 147.17 1.90L147.17 1.90Q147.17 2.59 146.71 3.05Q146.26 3.50 145.54 3.50ZM156.89 18.38L151.01 18.38L151.01 17.26L152.16 17.04Q152.54 16.97 152.66 16.74Q152.78 16.51 152.78 15.89L152.78 15.89L152.78 9.12Q152.78 8.26 152.64 7.98Q152.50 7.70 151.97 7.63L151.97 7.63L150.79 7.46L150.96 6.31L154.30 6.05L154.58 6.22L154.75 8.35L154.82 8.35Q155.26 7.58 155.92 7.03Q156.58 6.48 157.38 6.18Q158.18 5.88 159.02 5.88L159.02 5.88Q160.30 5.88 161.17 6.35Q162.05 6.82 162.50 7.73Q162.96 8.64 162.96 9.98L162.96 9.98L162.96 16.08Q162.96 16.61 163.10 16.80Q163.25 16.99 163.70 17.06L163.70 17.06L164.83 17.26L164.83 18.38L158.95 18.38L158.95 17.28L160.01 17.09Q160.46 16.99 160.60 16.80Q160.73 16.61 160.73 16.08L160.73 16.08L160.73 10.68Q160.73 9.55 160.50 8.88Q160.27 8.21 159.74 7.91Q159.22 7.61 158.33 7.61L158.33 7.61Q156.82 7.61 155.92 8.52Q155.02 9.43 155.02 10.94L155.02 10.94L155.02 15.98Q155.02 16.54 155.14 16.74Q155.26 16.94 155.62 17.02L155.62 17.02L156.89 17.28L156.89 18.38ZM170.18 18.72L170.18 18.72Q168.67 18.72 167.75 17.83Q166.82 16.94 166.82 15.48L166.82 15.48Q166.82 14.16 167.48 13.34Q168.14 12.53 169.66 12.11Q171.17 11.69 173.71 11.57L173.71 11.57L173.71 9.94Q173.71 8.45 173.09 7.78Q172.46 7.10 171.12 7.10L171.12 7.10Q170.47 7.10 169.84 7.31Q169.20 7.51 168.91 7.82L168.91 7.82Q169.54 8.86 169.54 9.17L169.54 9.17Q169.54 9.62 169.16 9.94Q168.79 10.25 168.24 10.25L168.24 10.25Q167.59 10.25 167.23 9.92Q166.87 9.60 166.87 9L166.87 9Q166.87 8.16 167.51 7.45Q168.14 6.74 169.19 6.31Q170.23 5.88 171.46 5.88L171.46 5.88Q173.74 5.88 174.84 6.94Q175.94 7.99 175.94 10.20L175.94 10.20L175.94 15.98Q175.94 17.04 177.02 17.04L177.02 17.04Q177.29 17.04 177.55 16.99Q177.82 16.94 178.15 16.85L178.15 16.85L178.39 17.76Q177.96 18.17 177.34 18.44Q176.71 18.72 176.18 18.72L176.18 18.72Q175.15 18.72 174.59 18.18Q174.02 17.64 173.90 16.58L173.90 16.58Q172.56 18.72 170.18 18.72ZM171.10 17.06L171.10 17.06Q172.22 17.06 172.97 16.33Q173.71 15.60 173.71 14.52L173.71 14.52L173.71 12.82Q171.38 12.82 170.27 13.40Q169.15 13.99 169.15 15.22L169.15 15.22Q169.15 16.08 169.68 16.57Q170.21 17.06 171.10 17.06ZM185.71 18.38L179.83 18.38L179.83 17.26L180.98 17.04Q181.37 16.97 181.49 16.74Q181.61 16.51 181.61 15.89L181.61 15.89L181.61 9.12Q181.61 8.26 181.46 7.98Q181.32 7.70 180.79 7.63L180.79 7.63L179.62 7.46L179.78 6.31L183.12 6.05L183.41 6.22L183.58 8.35L183.65 8.35Q184.08 7.58 184.74 7.03Q185.40 6.48 186.20 6.18Q187.01 5.88 187.85 5.88L187.85 5.88Q189.12 5.88 190.00 6.35Q190.87 6.82 191.33 7.73Q191.78 8.64 191.78 9.98L191.78 9.98L191.78 16.08Q191.78 16.61 191.93 16.80Q192.07 16.99 192.53 17.06L192.53 17.06L193.66 17.26L193.66 18.38L187.78 18.38L187.78 17.28L188.83 17.09Q189.29 16.99 189.42 16.80Q189.55 16.61 189.55 16.08L189.55 16.08L189.55 10.68Q189.55 9.55 189.32 8.88Q189.10 8.21 188.57 7.91Q188.04 7.61 187.15 7.61L187.15 7.61Q185.64 7.61 184.74 8.52Q183.84 9.43 183.84 10.94L183.84 10.94L183.84 15.98Q183.84 16.54 183.96 16.74Q184.08 16.94 184.44 17.02L184.44 17.02L185.71 17.28L185.71 18.38ZM201.17 18.72L201.17 18.72Q199.44 18.72 198.17 17.95Q196.90 17.18 196.20 15.78Q195.50 14.38 195.50 12.46L195.50 12.46Q195.50 10.46 196.24 8.99Q196.97 7.51 198.29 6.70Q199.61 5.88 201.36 5.88L201.36 5.88Q202.58 5.88 203.56 6.29Q204.53 6.70 205.09 7.40Q205.66 8.11 205.66 9.02L205.66 9.02Q205.66 9.74 205.22 10.16Q204.79 10.58 204.07 10.58L204.07 10.58Q203.64 10.58 203.32 10.44Q202.99 10.30 202.82 10.04Q202.66 9.79 202.66 9.43L202.66 9.43Q202.66 9.14 202.80 8.78Q202.94 8.42 203.33 7.80L203.33 7.80Q202.87 7.46 202.39 7.34Q201.91 7.22 201.17 7.22L201.17 7.22Q200.23 7.22 199.50 7.82Q198.77 8.42 198.35 9.49Q197.93 10.56 197.93 11.95L197.93 11.95Q197.93 14.23 198.96 15.55Q199.99 16.87 201.77 16.87L201.77 16.87Q202.68 16.87 203.47 16.55Q204.26 16.22 204.86 15.62L204.86 15.62L205.68 16.46Q204.91 17.50 203.71 18.11Q202.51 18.72 201.17 18.72ZM213.79 18.38L207.34 18.38L207.34 17.21L208.70 16.99Q209.18 16.92 209.32 16.68Q209.45 16.44 209.45 15.77L209.45 15.77L209.45 9.22Q209.45 8.33 209.29 8.05Q209.14 7.78 208.58 7.70L208.58 7.70L207.43 7.54L207.60 6.34L211.39 6.14L211.68 6.26L211.68 15.86Q211.68 16.46 211.84 16.69Q211.99 16.92 212.45 16.99L212.45 16.99L213.79 17.23L213.79 18.38ZM210.22 3.50L210.22 3.50Q209.52 3.50 209.06 3.06Q208.61 2.62 208.61 1.92L208.61 1.92Q208.61 1.22 209.06 0.77Q209.52 0.31 210.22 0.31L210.22 0.31Q210.94 0.31 211.39 0.76Q211.85 1.20 211.85 1.90L211.85 1.90Q211.85 2.59 211.39 3.05Q210.94 3.50 210.22 3.50ZM218.98 18.72L218.98 18.72Q217.46 18.72 216.54 17.83Q215.62 16.94 215.62 15.48L215.62 15.48Q215.62 14.16 216.28 13.34Q216.94 12.53 218.45 12.11Q219.96 11.69 222.50 11.57L222.50 11.57L222.50 9.94Q222.50 8.45 221.88 7.78Q221.26 7.10 219.91 7.10L219.91 7.10Q219.26 7.10 218.63 7.31Q217.99 7.51 217.70 7.82L217.70 7.82Q218.33 8.86 218.33 9.17L218.33 9.17Q218.33 9.62 217.96 9.94Q217.58 10.25 217.03 10.25L217.03 10.25Q216.38 10.25 216.02 9.92Q215.66 9.60 215.66 9L215.66 9Q215.66 8.16 216.30 7.45Q216.94 6.74 217.98 6.31Q219.02 5.88 220.25 5.88L220.25 5.88Q222.53 5.88 223.63 6.94Q224.74 7.99 224.74 10.20L224.74 10.20L224.74 15.98Q224.74 17.04 225.82 17.04L225.82 17.04Q226.08 17.04 226.34 16.99Q226.61 16.94 226.94 16.85L226.94 16.85L227.18 17.76Q226.75 18.17 226.13 18.44Q225.50 18.72 224.98 18.72L224.98 18.72Q223.94 18.72 223.38 18.18Q222.82 17.64 222.70 16.58L222.70 16.58Q221.35 18.72 218.98 18.72ZM219.89 17.06L219.89 17.06Q221.02 17.06 221.76 16.33Q222.50 15.60 222.50 14.52L222.50 14.52L222.50 12.82Q220.18 12.82 219.06 13.40Q217.94 13.99 217.94 15.22L217.94 15.22Q217.94 16.08 218.47 16.57Q219.00 17.06 219.89 17.06ZM234.77 18.38L228.31 18.38L228.31 17.21L229.68 16.99Q230.16 16.92 230.29 16.68Q230.42 16.44 230.42 15.77L230.42 15.77L230.42 2.95Q230.42 2.11 230.24 1.86Q230.06 1.61 229.39 1.51L229.39 1.51L228.34 1.34L228.48 0.12L232.39 0L232.66 0.26L232.66 15.86Q232.66 16.46 232.81 16.69Q232.97 16.92 233.42 16.99L233.42 16.99L234.77 17.23L234.77 18.38Z" transform="translate(36, 8.808)"></path></svg>